SplineFontDB: 3.2
FontName: PCB1-Bold
FullName: PCB1-Bold
FamilyName: PCB1
Weight: Bold
Copyright: Copyright (c) 2025, Fujix
UComments: "2025-11-27: Created with FontForge (http://fontforge.org)"
Version: 001.000
ItalicAngle: 0
UnderlinePosition: -211.568
UnderlineWidth: 76
Ascent: 1240
Descent: 280
InvalidEm: 0
LayerCount: 2
Layer: 0 0 "+gMyXYgAA" 1
Layer: 1 0 "+Uk2XYgAA" 0
XUID: [1021 249 -198832299 25116]
OS2Version: 0
OS2_WeightWidthSlopeOnly: 0
OS2_UseTypoMetrics: 1
CreationTime: 1764218990
ModificationTime: 1765516818
OS2TypoAscent: 0
OS2TypoAOffset: 1
OS2TypoDescent: 0
OS2TypoDOffset: 1
OS2TypoLinegap: 0
OS2WinAscent: 0
OS2WinAOffset: 1
OS2WinDescent: 0
OS2WinDOffset: 1
HheadAscent: 0
HheadAOffset: 1
HheadDescent: 0
HheadDOffset: 1
OS2Vendor: 'PfEd'
MarkAttachClasses: 1
DEI: 91125
Encoding: UnicodeBmp
UnicodeInterp: none
NameList: AGL For New Fonts
DisplaySize: -36
AntiAlias: 1
FitToEm: 0
WinInfo: 7800 40 13
BeginPrivate: 0
EndPrivate
BeginChars: 65536 58

StartChar: parenleft
Encoding: 40 40 0
Width: 724
VWidth: 1518
Flags: HW
LayerCount: 2
Fore
SplineSet
532.099609375 -162 m 0
 511.400390625 -162 490.5 -156.400390625 471.700195312 -144.700195312 c 0
 458.900390625 -136.700195312 158.5 56.599609375 158.5 535.099609375 c 0
 158.5 965.799804688 448.200195312 1204.90039062 460.599609375 1214.90039062 c 0
 509.200195312 1254.20019531 580.5 1246.59960938 619.799804688 1198 c 0
 659 1149.5 651.599609375 1078.5 603.299804688 1039.09960938 c 0
 593.099609375 1030.70019531 384.900390625 853.599609375 384.900390625 535.200195312 c 0
 384.900390625 187.400390625 584.299804688 52.2998046875 592.799804688 46.7001953125 c 0
 645.799804688 13.5 661.400390625 -56 628.299804688 -109 c 0
 606.900390625 -143.299804688 569.900390625 -162 532.099609375 -162 c 0
EndSplineSet
EndChar

StartChar: parenright
Encoding: 41 41 1
Width: 725
VWidth: 1518
Flags: HW
LayerCount: 2
Fore
SplineSet
193.299804688 -158.700195312 m 0
 155.599609375 -158.700195312 118.700195312 -139.799804688 97.2001953125 -105.5 c 0
 64.099609375 -52.5 80.099609375 17.400390625 133.200195312 50.5 c 0
 140.599609375 55.400390625 340 190.5 340 538.299804688 c 0
 340 857.799804688 130.5 1034.90039062 121.599609375 1042.29980469 c 0
 73.599609375 1082 66.5 1153.20019531 105.900390625 1201.40039062 c 0
 145.299804688 1249.59960938 215.900390625 1257.09960938 264.400390625 1218 c 0
 276.700195312 1208 566.400390625 968.900390625 566.400390625 538.299804688 c 0
 566.400390625 59.7998046875 266 -133.5 253.200195312 -141.5 c 0
 234.5 -153.200195312 213.799804688 -158.700195312 193.299804688 -158.700195312 c 0
EndSplineSet
EndChar

StartChar: plus
Encoding: 43 43 2
Width: 1342
VWidth: 1518
Flags: HW
LayerCount: 2
Fore
SplineSet
1077.29980469 647.700195312 m 2
 1136.79980469 647.700195312 1185 599.5 1185 540 c 0
 1185 480.5 1136.79980469 432.299804688 1077.29980469 432.299804688 c 2
 779.400390625 432.299804688 l 1
 779.400390625 134.400390625 l 2
 779.400390625 74.900390625 731.200195312 26.7001953125 671.700195312 26.7001953125 c 0
 612.200195312 26.7001953125 564 74.900390625 564 134.400390625 c 2
 564 432.299804688 l 1
 266.099609375 432.299804688 l 2
 206.599609375 432.299804688 158.400390625 480.5 158.400390625 540 c 0
 158.400390625 599.5 206.599609375 647.700195312 266.099609375 647.700195312 c 2
 564 647.700195312 l 1
 564 945.599609375 l 2
 564 1005.09960938 612.200195312 1053.29980469 671.700195312 1053.29980469 c 0
 731.200195312 1053.29980469 779.400390625 1005.09960938 779.400390625 945.599609375 c 2
 779.400390625 647.700195312 l 1
 1077.29980469 647.700195312 l 2
EndSplineSet
EndChar

StartChar: slash
Encoding: 47 47 3
Width: 786
VWidth: 1518
Flags: HW
LayerCount: 2
Fore
SplineSet
241.5 76.2001953125 m 0
 231.5 76.2001953125 221.400390625 78 211.599609375 81.900390625 c 0
 169.700195312 98.400390625 149.200195312 145.799804688 165.700195312 187.700195312 c 2
 471 961.5 l 2
 487.5 1003.40039062 534.799804688 1024 576.799804688 1007.40039062 c 0
 618.700195312 990.900390625 639.200195312 943.5 622.700195312 901.599609375 c 2
 317.400390625 127.799804688 l 2
 304.700195312 95.7998046875 274 76.2001953125 241.5 76.2001953125 c 0
EndSplineSet
EndChar

StartChar: zero
Encoding: 48 48 4
Width: 1092
VWidth: 1518
Flags: HW
LayerCount: 2
Fore
SplineSet
525.400390625 0.7998046875 m 1
 521.599609375 0.7998046875 517.799804688 0.7998046875 514 0.900390625 c 0
 242.299804688 6.900390625 80 268.299804688 80 517.599609375 c 0
 80 852.799804688 268.5 1078 549 1078 c 0
 829.5 1078 1011.40039062 862.099609375 1011.40039062 540.799804688 c 0
 1011.40039062 375.799804688 955.799804688 230.5 854.700195312 131.700195312 c 0
 768.200195312 47.099609375 651.599609375 0.900390625 525.299804688 0.900390625 c 1
 525.400390625 0.7998046875 l 1
549 850.099609375 m 2
 325.200195312 850.099609375 307.799804688 595.599609375 307.799804688 517.599609375 c 0
 307.799804688 380.900390625 388.5 231.599609375 519 228.700195312 c 0
 589.5 227 650 249.900390625 695.5 294.400390625 c 0
 752.400390625 350 783.700195312 437.5 783.700195312 540.700195312 c 0
 783.700195312 613.299804688 766.799804688 850.099609375 549.099609375 850.099609375 c 2
 549 850.099609375 l 2
EndSplineSet
EndChar

StartChar: one
Encoding: 49 49 5
Width: 1000
VWidth: 1518
Flags: HW
LayerCount: 2
Fore
SplineSet
500 0.7998046875 m 0
 437.099609375 0.7998046875 386.099609375 51.7998046875 386.099609375 114.700195312 c 2
 386.099609375 963.400390625 l 2
 386.099609375 1026.29980469 437.099609375 1077.29980469 500 1077.29980469 c 0
 562.900390625 1077.29980469 613.900390625 1026.29980469 613.900390625 963.400390625 c 2
 613.900390625 114.700195312 l 2
 613.900390625 51.7998046875 562.900390625 0.7998046875 500 0.7998046875 c 0
EndSplineSet
EndChar

StartChar: two
Encoding: 50 50 6
Width: 1001
VWidth: 1518
Flags: HW
LayerCount: 2
Fore
SplineSet
815.099609375 0.7998046875 m 1
 199.799804688 0.7998046875 l 2
 168.799804688 0.7998046875 139.200195312 13.400390625 117.700195312 35.7001953125 c 0
 96.2001953125 58 84.7998046875 88.099609375 86 119.099609375 c 0
 86.7998046875 139.900390625 100.700195312 327 336.099609375 488.700195312 c 0
 397.099609375 530.599609375 454.5 564.099609375 505.099609375 593.700195312 c 0
 642.799804688 674.200195312 680.200195312 703.099609375 680.599609375 752.900390625 c 0
 680.700195312 767.299804688 677.799804688 794.599609375 656.799804688 815.900390625 c 0
 632.299804688 840.700195312 587.799804688 854 528 854.299804688 c 2
 526.5 854.299804688 l 2
 375.900390625 854.299804688 284.799804688 742.700195312 283.900390625 741.599609375 c 0
 245.200195312 691.900390625 173.700195312 683 124 721.700195312 c 0
 74.400390625 760.400390625 65.5 831.900390625 104.099609375 881.599609375 c 0
 110.5 889.799804688 263.299804688 1082.09960938 526.400390625 1082.09960938 c 2
 529 1082.09960938 l 2
 682.700195312 1081.40039062 771.5 1023.90039062 818.900390625 975.900390625 c 0
 877.299804688 916.700195312 909.099609375 836.799804688 908.299804688 750.900390625 c 0
 906.700195312 564.599609375 767.400390625 483.200195312 619.900390625 397 c 0
 570.400390625 368 519.099609375 338.099609375 464.900390625 300.900390625 c 0
 428.900390625 276.200195312 401.400390625 251.599609375 380.5 228.599609375 c 1
 815 228.599609375 l 2
 877.900390625 228.599609375 928.900390625 177.599609375 928.900390625 114.700195312 c 0
 928.900390625 51.7998046875 877.900390625 0.7998046875 815 0.7998046875 c 1
 815.099609375 0.7998046875 l 1
EndSplineSet
EndChar

StartChar: three
Encoding: 51 51 7
Width: 1032
VWidth: 1518
Flags: HW
LayerCount: 2
Fore
SplineSet
494 0 m 1
 245.099609375 0 122 126.599609375 108.099609375 141.799804688 c 0
 68 185.799804688 71.099609375 253.900390625 115.099609375 294 c 0
 159.099609375 334.099609375 227.200195312 331 267.299804688 287 c 0
 269.200195312 285.200195312 349.200195312 206.599609375 524.299804688 216.299804688 c 0
 533 216.799804688 736.5 229.700195312 736.5 361.700195312 c 0
 736.5 437.200195312 655.599609375 454.299804688 654.799804688 454.400390625 c 0
 630.400390625 457.299804688 576.799804688 457.099609375 545.799804688 456.299804688 c 0
 543.200195312 456.299804688 541.799804688 456.200195312 541.700195312 456.200195312 c 0
 482.099609375 454.700195312 432.700195312 501.299804688 431 560.799804688 c 0
 429.299804688 620.299804688 476 669.799804688 535.5 671.599609375 c 0
 536.299804688 671.599609375 537.700195312 671.599609375 539.5 671.700195312 c 0
 556 672.099609375 621.700195312 673.900390625 660.400390625 674.200195312 c 0
 673.200195312 675.599609375 713.5 707 714.299804688 756.099609375 c 0
 714.400390625 763.299804688 709.799804688 786.799804688 687.200195312 809.700195312 c 0
 657.799804688 839.5 610.099609375 855.299804688 549.200195312 855.299804688 c 0
 409.599609375 855.299804688 375.900390625 815.099609375 351 801.5 c 0
 342.5 796.900390625 327.900390625 786.299804688 323 783.299804688 c 0
 271.599609375 751.599609375 210.400390625 758.700195312 175.700195312 807 c 0
 141.599609375 854.5 150.799804688 926.299804688 198 962.299804688 c 0
 199.900390625 964 202 965.700195312 204.299804688 967.200195312 c 0
 237.200195312 991.5 327.900390625 1070.79980469 549.299804688 1070.79980469 c 0
 700.799804688 1070.79980469 791.5 1011 840.799804688 960.900390625 c 0
 897.700195312 903.099609375 930.900390625 825.299804688 929.799804688 752.799804688 c 0
 928.799804688 686.099609375 905.200195312 622.799804688 867.5 572.099609375 c 1
 916.700195312 521.299804688 952 451 952 361.799804688 c 0
 952 130 736.5 12.400390625 536.299804688 1.2998046875 c 0
 521.799804688 0.5 507.700195312 0.099609375 493.900390625 0.099609375 c 1
 494 0 l 1
EndSplineSet
EndChar

StartChar: four
Encoding: 52 52 8
Width: 1075
VWidth: 1518
Flags: HW
LayerCount: 2
Fore
SplineSet
735.799804688 0.7998046875 m 1
 735.5 0.7998046875 l 2
 672.599609375 1 621.700195312 52.2001953125 621.900390625 115.099609375 c 2
 622.200195312 209.299804688 l 1
 194 210.799804688 l 2
 149.700195312 210.900390625 109.599609375 236.700195312 91 276.900390625 c 0
 72.400390625 317.099609375 78.7998046875 364.400390625 107.400390625 398.200195312 c 2
 651.400390625 1042.40039062 l 2
 682.299804688 1079 732.799804688 1092.40039062 777.700195312 1075.79980469 c 0
 822.599609375 1059.29980469 852.5 1016.40039062 852.299804688 968.5 c 2
 850.599609375 436.400390625 l 1
 880.900390625 436.400390625 l 2
 943.799804688 436.099609375 994.599609375 384.900390625 994.400390625 322 c 0
 994.200195312 259.200195312 943.200195312 208.5 880.5 208.5 c 2
 849.900390625 208.5 l 1
 849.599609375 114.400390625 l 2
 849.400390625 51.599609375 798.400390625 0.7998046875 735.700195312 0.7998046875 c 1
 735.799804688 0.7998046875 l 1
439 437.799804688 m 1
 622.900390625 437.200195312 l 1
 623.599609375 656.299804688 l 1
 439.099609375 437.799804688 l 1
 439 437.799804688 l 1
EndSplineSet
EndChar

StartChar: five
Encoding: 53 53 9
Width: 1061
VWidth: 1518
Flags: HW
LayerCount: 2
Fore
SplineSet
474.799804688 0.7998046875 m 2
 300.700195312 0.7998046875 162.200195312 52.400390625 153.299804688 55.7998046875 c 0
 94.5 78.2001953125 65 144 87.400390625 202.799804688 c 0
 109.799804688 261.599609375 175.599609375 291.099609375 234.400390625 268.700195312 c 0
 236.5 267.900390625 485.599609375 176.799804688 684 271.400390625 c 0
 764.099609375 309.599609375 754.799804688 382 750 403.299804688 c 0
 738 456.599609375 687.900390625 519 586.200195312 519.299804688 c 0
 412 518.900390625 286.400390625 455.799804688 285.200195312 455.200195312 c 0
 249.599609375 436.799804688 206.900390625 438.200195312 172.799804688 459.099609375 c 0
 138.700195312 480 117.900390625 517.200195312 118.299804688 557.200195312 c 2
 122.400390625 963.099609375 l 2
 123 1025.40039062 173.599609375 1075.59960938 235.900390625 1075.90039062 c 2
 797.200195312 1077.90039062 l 1
 797.599609375 1077.90039062 l 2
 860.299804688 1077.90039062 911.299804688 1027.20019531 911.5 964.400390625 c 0
 911.700195312 901.5 860.900390625 850.299804688 798 850.099609375 c 2
 349.099609375 848.5 l 1
 347.799804688 717.700195312 l 1
 413.5 734.299804688 495.400390625 747.599609375 587.200195312 747.200195312 c 0
 807.900390625 746.400390625 939.799804688 599 972.5 453.200195312 c 0
 1008.5 293 932.099609375 137.299804688 782.299804688 65.7998046875 c 0
 679.599609375 16.7998046875 571.700195312 0.7998046875 474.900390625 0.7998046875 c 2
 474.799804688 0.7998046875 l 2
EndSplineSet
EndChar

StartChar: six
Encoding: 54 54 10
Width: 1072
VWidth: 1518
Flags: HW
LayerCount: 2
Fore
SplineSet
563.700195312 0.7998046875 m 2
 407.599609375 0.7998046875 292.200195312 40.599609375 211 122.400390625 c 0
 161.900390625 171.799804688 126.900390625 235.099609375 105.5 313.5 c 0
 104.400390625 317.099609375 103.400390625 320.700195312 102.599609375 324.400390625 c 0
 86.900390625 386.5 79.400390625 457.799804688 80 538.900390625 c 0
 82.599609375 899.599609375 324.200195312 1068.20019531 562.5 1075.20019531 c 0
 780 1081.5 894.799804688 979.900390625 915.900390625 959.5 c 0
 961.099609375 915.700195312 962.200195312 843.599609375 918.400390625 798.400390625 c 0
 874.700195312 753.400390625 802.799804688 752.200195312 757.700195312 795.599609375 c 0
 754 799 694.599609375 851.099609375 569.299804688 847.5 c 0
 516.900390625 846 362.299804688 825.200195312 319.200195312 640.099609375 c 1
 392.200195312 677.5 475.799804688 696.099609375 564.799804688 693.5 c 0
 812.900390625 686.5 993 544.099609375 993 354.799804688 c 0
 993 139.799804688 824.5 0.7998046875 563.799804688 0.7998046875 c 2
 563.700195312 0.7998046875 l 2
332.099609375 351.599609375 m 0
 342.400390625 322.700195312 355.900390625 299.799804688 372.700195312 282.900390625 c 0
 408.900390625 246.400390625 471.400390625 228.599609375 563.700195312 228.599609375 c 0
 697.299804688 228.599609375 765.099609375 271 765.099609375 354.799804688 c 0
 765.099609375 405.400390625 686.099609375 462.200195312 558.400390625 465.799804688 c 0
 418.900390625 469.799804688 350.700195312 386.5 332.099609375 351.599609375 c 0
EndSplineSet
EndChar

StartChar: seven
Encoding: 55 55 11
Width: 1114
VWidth: 1518
Flags: HW
LayerCount: 2
Fore
SplineSet
515.599609375 0.7998046875 m 2
 506.700195312 0.7998046875 497.599609375 1.7998046875 488.5 4 c 0
 427.299804688 18.599609375 389.799804688 81.099609375 404.400390625 142.299804688 c 0
 408.200195312 158.099609375 435.099609375 253.599609375 592.799804688 578.5 c 0
 649.599609375 695.5 697.5 785.700195312 736 854 c 1
 193.900390625 854 l 2
 131 854 80 905 80 967.900390625 c 0
 80 1030.79980469 131 1081.79980469 193.900390625 1081.79980469 c 2
 941.799804688 1081.79980469 l 2
 985.5 1081.79980469 1025.29980469 1056.79980469 1044.29980469 1017.59960938 c 0
 1063.29980469 978.299804688 1058.20019531 931.599609375 1031.20019531 897.299804688 c 0
 1030.79980469 896.700195312 948.200195312 788.5 797.900390625 479 c 0
 650.799804688 176.099609375 626.599609375 90.7001953125 625.599609375 87.2998046875 c 0
 613.200195312 35.2001953125 566.900390625 0.7998046875 515.700195312 0.7998046875 c 2
 515.599609375 0.7998046875 l 2
EndSplineSet
EndChar

StartChar: eight
Encoding: 56 56 12
Width: 1048
VWidth: 1518
Flags: HW
LayerCount: 2
Fore
SplineSet
854.599609375 585.299804688 m 1
 925.599609375 522.299804688 967.599609375 437.799804688 967.799804688 341 c 0
 967.900390625 257.099609375 936.700195312 181.400390625 877.599609375 122.099609375 c 0
 822.5 66.7998046875 714.200195312 0.900390625 524 0.900390625 c 0
 333.799804688 0.900390625 226.900390625 71.400390625 170.700195312 130.599609375 c 0
 107.900390625 196.799804688 75.900390625 282.200195312 80.5 371.099609375 c 0
 84.900390625 456.900390625 127.5 533.700195312 194.400390625 591.900390625 c 1
 193.900390625 592.400390625 193.299804688 593 192.799804688 593.5 c 0
 139.700195312 649.700195312 112.799804688 721.400390625 117.099609375 795.200195312 c 0
 126.400390625 956.799804688 300.799804688 1081.59960938 514.5 1081.09960938 c 0
 759.400390625 1079.59960938 930.799804688 951.400390625 931.200195312 769.400390625 c 0
 931.299804688 699.5 904.900390625 635.900390625 854.599609375 585.299804688 c 1
511.099609375 853.200195312 m 0
 404.5 853.200195312 345.599609375 800.400390625 344.5 782 c 0
 343.900390625 771.299804688 348.799804688 760.099609375 358.5 749.799804688 c 0
 371.900390625 735.599609375 414.900390625 702.599609375 524 702.599609375 c 0
 640.799804688 702.599609375 682.799804688 735.599609375 692.900390625 745.700195312 c 0
 702.099609375 754.900390625 703.299804688 762.200195312 703.299804688 768.799804688 c 0
 703.200195312 813.900390625 616.099609375 852.599609375 513.099609375 853.200195312 c 0
 512.400390625 853.200195312 511.799804688 853.200195312 511.099609375 853.200195312 c 0
716.400390625 283 m 2
 716.400390625 283.099609375 l 2
 732.299804688 299.099609375 740 317.900390625 740 340.599609375 c 0
 739.799804688 438 603.400390625 474.299804688 511.799804688 474.900390625 c 0
 511.099609375 474.900390625 510.299804688 474.900390625 509.599609375 474.900390625 c 0
 388.299804688 474.900390625 310.5 407.799804688 308 359.299804688 c 0
 306.599609375 333.400390625 316.5 307.900390625 335.900390625 287.5 c 0
 371.900390625 249.599609375 436.200195312 228.700195312 524 228.700195312 c 0
 611.799804688 228.700195312 681.900390625 248.5 716.400390625 283 c 2
EndSplineSet
EndChar

StartChar: nine
Encoding: 57 57 13
Width: 1053
VWidth: 1518
Flags: HW
LayerCount: 2
Fore
SplineSet
482 0.7998046875 m 1
 269.900390625 0.7998046875 157.299804688 96.599609375 136.799804688 116 c 0
 91 159.099609375 88.900390625 231.200195312 132 277 c 0
 175 322.599609375 246.700195312 324.900390625 292.400390625 282.299804688 c 0
 296.700195312 278.599609375 356.700195312 228.599609375 482 228.599609375 c 0
 483.200195312 228.599609375 484.299804688 228.599609375 485.5 228.599609375 c 0
 600.5 229.5 708.299804688 258 737.400390625 438.700195312 c 1
 663.5 399.900390625 578.099609375 380.700195312 487.5 383.200195312 c 0
 239.099609375 390.200195312 58.7998046875 532.799804688 58.7998046875 722.299804688 c 0
 58.7998046875 937.599609375 227.5 1076.70019531 488.599609375 1076.70019531 c 0
 645 1076.70019531 760.5 1036.90039062 841.799804688 955 c 0
 891.099609375 905.299804688 926.299804688 841.700195312 947.700195312 762.799804688 c 0
 948.599609375 759.799804688 949.400390625 756.799804688 950.099609375 753.700195312 c 0
 966 691.299804688 973.5 619.599609375 972.900390625 537.900390625 c 0
 970.400390625 193.900390625 797.900390625 3.099609375 487.200195312 0.7998046875 c 0
 485.400390625 0.7998046875 483.599609375 0.7998046875 481.900390625 0.7998046875 c 1
 482 0.7998046875 l 1
488.599609375 849 m 1
 354.599609375 849 286.700195312 806.400390625 286.700195312 722.400390625 c 0
 286.700195312 671.599609375 366 614.599609375 494 611 c 0
 634.200195312 607.5 702.400390625 690.700195312 721 725.599609375 c 0
 710.700195312 754.599609375 697.099609375 777.599609375 680.200195312 794.5 c 0
 643.900390625 831.099609375 581.200195312 848.900390625 488.599609375 848.900390625 c 1
 488.599609375 849 l 1
EndSplineSet
EndChar

StartChar: colon
Encoding: 58 58 15
Width: 788
VWidth: 1518
Flags: HW
LayerCount: 2
Fore
SplineSet
269.299804688 194.599609375 m 0
 269.299804688 264.51953125 325.98046875 321.200195312 395.900390625 321.200195312 c 0
 465.819335938 321.200195312 522.5 264.51953125 522.5 194.599609375 c 0
 522.5 124.680664062 465.819335938 68 395.900390625 68 c 0
 325.98046875 68 269.299804688 124.680664062 269.299804688 194.599609375 c 0
269.299804688 886.599609375 m 0
 269.299804688 956.51953125 325.98046875 1013.20019531 395.900390625 1013.20019531 c 0
 465.819335938 1013.20019531 522.5 956.51953125 522.5 886.599609375 c 0
 522.5 816.680664062 465.819335938 760 395.900390625 760 c 0
 325.98046875 760 269.299804688 816.680664062 269.299804688 886.599609375 c 0
EndSplineSet
EndChar

StartChar: Z
Encoding: 90 90 16
Width: 1024
VWidth: 1518
Flags: HW
LayerCount: 2
Fore
SplineSet
826.799804688 0 m 1
 193.900390625 0 l 2
 150.799804688 0 111.400390625 24.2998046875 92 62.900390625 c 0
 72.7001953125 101.5 76.7998046875 147.599609375 102.599609375 182.099609375 c 2
 599.400390625 846.599609375 l 1
 193.900390625 846.599609375 l 2
 131 846.599609375 80 897.599609375 80 960.5 c 0
 80 1023.40039062 131 1074.40039062 193.900390625 1074.40039062 c 2
 826.799804688 1074.40039062 l 2
 869.900390625 1074.40039062 909.299804688 1050.09960938 928.700195312 1011.5 c 0
 948 972.900390625 943.900390625 926.799804688 918.099609375 892.299804688 c 2
 421.400390625 227.799804688 l 1
 826.900390625 227.799804688 l 2
 889.799804688 227.799804688 940.799804688 176.799804688 940.799804688 113.900390625 c 0
 940.799804688 51 889.799804688 0 826.900390625 0 c 2
 826.799804688 0 l 1
EndSplineSet
EndChar

StartChar: Y
Encoding: 89 89 17
Width: 1062
VWidth: 1518
Flags: HW
LayerCount: 2
Fore
SplineSet
937.299804688 1049.70019531 m 0
 986.5 1010.5 994.599609375 938.799804688 955.400390625 889.599609375 c 2
 637.700195312 490.799804688 l 2
 637.799804688 489.099609375 638.200195312 487.599609375 638.200195312 485.900390625 c 2
 638.200195312 114 l 2
 638.200195312 51.099609375 587.200195312 0.099609375 524.299804688 0.099609375 c 0
 461.400390625 0.099609375 410.400390625 51.099609375 410.400390625 114 c 2
 410.400390625 485.900390625 l 2
 410.400390625 487.599609375 410.900390625 489.099609375 410.900390625 490.799804688 c 2
 105.799804688 891.599609375 l 2
 67.599609375 941.700195312 77.2998046875 1013.20019531 127.400390625 1051.29980469 c 0
 177.400390625 1089.40039062 248.900390625 1079.79980469 287 1029.70019531 c 2
 525.799804688 716 l 1
 777.200195312 1031.59960938 l 2
 816.400390625 1080.79980469 888.099609375 1088.90039062 937.299804688 1049.70019531 c 0
EndSplineSet
EndChar

StartChar: X
Encoding: 88 88 18
Width: 1049
VWidth: 1518
Flags: HW
LayerCount: 2
Fore
SplineSet
945.400390625 183.599609375 m 1
 945.299804688 183.700195312 l 1
 983.799804688 133.900390625 974.599609375 62.400390625 924.799804688 23.900390625 c 0
 904.099609375 7.900390625 879.5 0.099609375 855.200195312 0.099609375 c 0
 821.099609375 0.099609375 787.400390625 15.400390625 765 44.400390625 c 2
 522.299804688 358.599609375 l 1
 283.700195312 53.099609375 l 2
 261.200195312 24.2998046875 227.700195312 9.2998046875 193.799804688 9.2998046875 c 0
 169.299804688 9.2998046875 144.599609375 17.099609375 123.799804688 33.400390625 c 0
 74.2001953125 72.099609375 65.400390625 143.700195312 104.099609375 193.299804688 c 2
 378.5 544.599609375 l 1
 103.799804688 900.200195312 l 2
 65.2998046875 950 74.5 1021.5 124.299804688 1060 c 0
 174.099609375 1098.40039062 245.599609375 1089.29980469 284.099609375 1039.5 c 2
 523.299804688 729.900390625 l 1
 765.400390625 1039.90039062 l 2
 804.099609375 1089.5 875.799804688 1098.29980469 925.299804688 1059.59960938 c 0
 974.900390625 1020.90039062 983.700195312 949.299804688 945 899.700195312 c 2
 667.099609375 543.799804688 l 1
 945.400390625 183.599609375 l 1
EndSplineSet
EndChar

StartChar: W
Encoding: 87 87 19
Width: 1407
VWidth: 1518
Flags: HW
LayerCount: 2
Fore
SplineSet
452 0 m 2
 401.900390625 0 357.700195312 32.7001953125 343.099609375 80.7001953125 c 2
 85 926.200195312 l 2
 66.599609375 986.400390625 100.5 1050 160.700195312 1068.40039062 c 0
 220.799804688 1086.70019531 284.599609375 1052.90039062 302.900390625 992.700195312 c 2
 451.900390625 504.400390625 l 1
 601.099609375 993.799804688 l 2
 615.700195312 1041.79980469 660 1074.5 710.099609375 1074.5 c 2
 710.599609375 1074.5 l 2
 760.900390625 1074.29980469 805.099609375 1041.09960938 819.400390625 992.900390625 c 2
 960.5 515.700195312 l 1
 1101.59960938 992.900390625 l 2
 1119.40039062 1053.20019531 1182.90039062 1087.59960938 1243.20019531 1069.79980469 c 0
 1303.5 1052 1338 988.599609375 1320.09960938 928.299804688 c 2
 1069.79980469 81.7001953125 l 2
 1055.5 33.2998046875 1011 0.099609375 960.599609375 0.099609375 c 0
 910.200195312 0.099609375 865.700195312 33.2998046875 851.400390625 81.7001953125 c 2
 708.599609375 564.5 l 1
 561.200195312 80.7998046875 l 2
 546.599609375 32.900390625 502.400390625 0.099609375 452.299804688 0.099609375 c 1
 452.299804688 0.099609375 l 1
 452 0 l 2
EndSplineSet
EndChar

StartChar: V
Encoding: 86 86 20
Width: 1075
VWidth: 1518
Flags: HW
LayerCount: 2
Fore
SplineSet
527.599609375 0 m 1
 527.599609375 0 526.599609375 0 526.099609375 0 c 0
 479.900390625 0.599609375 438.599609375 29.099609375 421.599609375 72.099609375 c 2
 88 918.799804688 l 2
 64.900390625 977.299804688 93.7001953125 1043.5 152.200195312 1066.5 c 0
 210.799804688 1089.59960938 276.900390625 1060.79980469 300 1002.29980469 c 2
 531.700195312 414.5 l 1
 780.400390625 999.799804688 l 2
 805 1057.70019531 871.900390625 1084.70019531 929.799804688 1060.09960938 c 0
 987.700195312 1035.5 1014.70019531 968.599609375 990.099609375 910.700195312 c 2
 632.5 69.2998046875 l 2
 614.599609375 27.2001953125 573.299804688 -0.099609375 527.700195312 -0.099609375 c 2
 527.599609375 0 l 1
EndSplineSet
EndChar

StartChar: U
Encoding: 85 85 21
Width: 1061
VWidth: 1518
Flags: HW
LayerCount: 2
Fore
SplineSet
528.099609375 0 m 1
 251.700195312 0 80 181.700195312 80 474.200195312 c 2
 80 960.599609375 l 2
 80 1023.5 131 1074.5 193.900390625 1074.5 c 0
 256.799804688 1074.5 307.799804688 1023.5 307.799804688 960.599609375 c 2
 307.799804688 474.200195312 l 2
 307.799804688 227.900390625 473.599609375 227.900390625 528 227.900390625 c 0
 674.200195312 227.900390625 748.200195312 302 748.200195312 448.099609375 c 2
 748.200195312 960.599609375 l 2
 748.200195312 1023.5 799.200195312 1074.5 862.099609375 1074.5 c 0
 925 1074.5 976 1023.5 976 960.599609375 c 2
 976 448.099609375 l 2
 976 241.400390625 858.599609375 0 527.900390625 0 c 1
 528.099609375 0 l 1
EndSplineSet
EndChar

StartChar: T
Encoding: 84 84 22
Width: 1123
VWidth: 1518
Flags: HW
LayerCount: 2
Fore
SplineSet
928 1058.59960938 m 1
 928 1058.5 l 1
 990.900390625 1058.5 1041.90039062 1007.5 1041.90039062 944.599609375 c 0
 1041.90039062 881.700195312 990.900390625 830.700195312 928 830.700195312 c 2
 674.799804688 830.700195312 l 1
 674.799804688 114 l 2
 674.799804688 51.099609375 623.799804688 0.099609375 560.900390625 0.099609375 c 0
 498 0.099609375 447 51.099609375 447 114 c 2
 447 830.799804688 l 1
 193.900390625 830.799804688 l 2
 131 830.799804688 80 881.799804688 80 944.700195312 c 0
 80 1007.59960938 131 1058.59960938 193.900390625 1058.59960938 c 2
 928 1058.59960938 l 1
EndSplineSet
EndChar

StartChar: S
Encoding: 83 83 23
Width: 1009
VWidth: 1518
Flags: HW
LayerCount: 2
Fore
SplineSet
503.700195312 0 m 1
 268.299804688 0 129.799804688 127 114.799804688 141.5 c 0
 69.5 185.200195312 68.2001953125 257.299804688 111.900390625 302.599609375 c 0
 155.599609375 347.900390625 227.700195312 349.200195312 273 305.5 c 0
 275.5 303.299804688 359.400390625 227.900390625 503.700195312 227.900390625 c 1
 503.700195312 227.900390625 l 1
 611 227.900390625 701.700195312 265.400390625 701.700195312 309.700195312 c 0
 701.700195312 354 701.700195312 389.200195312 474.900390625 436.599609375 c 0
 158.599609375 502.700195312 92.2001953125 653.400390625 92.2001953125 768.200195312 c 0
 92.2001953125 909.599609375 195.599609375 1074.79980469 487.099609375 1074.79980469 c 1
 487.099609375 1074.79980469 l 1
 688.299804688 1074.79980469 809.099609375 990.299804688 822.200195312 980.700195312 c 0
 872.900390625 943.400390625 883.799804688 872.099609375 846.599609375 821.400390625 c 0
 809.599609375 771.099609375 739.200195312 760 688.5 796.200195312 c 0
 683.599609375 799.5 611.599609375 846.900390625 487.099609375 846.900390625 c 1
 487.099609375 846.900390625 l 1
 447.900390625 846.900390625 320.099609375 841.200195312 320.099609375 768.099609375 c 0
 320.099609375 706.400390625 474.299804688 669.400390625 521.599609375 659.5 c 0
 684.099609375 625.599609375 929.700195312 574.200195312 929.700195312 309.599609375 c 0
 929.700195312 127.299804688 754.599609375 -0 503.900390625 -0.099609375 c 1
 503.900390625 -0.099609375 l 1
 503.700195312 0 l 1
EndSplineSet
EndChar

StartChar: R
Encoding: 82 82 24
Width: 1084
VWidth: 1518
Flags: HW
LayerCount: 2
Fore
SplineSet
980.299804688 205.599609375 m 2
 1018.90039062 155.900390625 1009.79980469 84.400390625 960.099609375 45.7998046875 c 0
 939.400390625 29.7001953125 914.799804688 21.900390625 890.400390625 21.900390625 c 0
 856.400390625 21.900390625 822.700195312 37 800.299804688 66 c 2
 524.900390625 421.099609375 l 1
 445.599609375 421.700195312 366.900390625 422.799804688 307.900390625 423.799804688 c 1
 307.900390625 113.900390625 l 2
 307.900390625 51 256.900390625 0 194 0 c 0
 131.099609375 0 80.099609375 51 80.099609375 113.900390625 c 2
 80.099609375 955.299804688 l 2
 80.099609375 985.599609375 92.099609375 1014.59960938 113.599609375 1036 c 0
 135.099609375 1057.40039062 164.400390625 1068.79980469 194.5 1069.20019531 c 2
 194.5 1069.20019531 523.799804688 1067.79980469 655.5 1067.79980469 c 0
 851.5 1067.79980469 968.599609375 907.200195312 968.599609375 751.799804688 c 0
 968.599609375 609.799804688 901.200195312 503.599609375 788.299804688 453.200195312 c 1
 980.299804688 205.599609375 l 2
307.799804688 840.900390625 m 0
 307.799804688 651.700195312 l 1
 391.099609375 650.299804688 516 648.5 625.299804688 648.5 c 0
 709.400390625 648.5 740.700195312 676.400390625 740.700195312 751.700195312 c 0
 740.700195312 752.599609375 737.099609375 839.900390625 655.400390625 839.900390625 c 0
 573.700195312 839.900390625 416 840.5 307.799804688 840.900390625 c 0
EndSplineSet
EndChar

StartChar: Q
Encoding: 81 81 25
Width: 1164
VWidth: 1518
Flags: HW
LayerCount: 2
Fore
SplineSet
1040.40039062 203.799804688 m 1
 1040.40039062 203.900390625 l 1
 1090 165.200195312 1098.90039062 93.599609375 1060.20019531 44 c 0
 1037.79980469 15.2001953125 1004.20019531 0.099609375 970.299804688 0.099609375 c 0
 945.799804688 0.099609375 921.099609375 8 900.299804688 24.2001953125 c 2
 823.400390625 84.2001953125 l 1
 739.5 29.5 639 0.099609375 531.799804688 0.099609375 c 0
 527.900390625 0.099609375 524 0.2001953125 520 0.2001953125 c 0
 231.900390625 5.900390625 59.7001953125 264.700195312 59.7001953125 511.599609375 c 0
 59.7001953125 843.299804688 259.400390625 1066.09960938 557.400390625 1066.09960938 c 0
 855.400390625 1066.09960938 1055.59960938 854.200195312 1055.59960938 538.700195312 c 0
 1055.59960938 432.799804688 1029.09960938 334.200195312 980.400390625 250.599609375 c 1
 1040.40039062 203.799804688 l 1
524.599609375 227.900390625 m 1
 524.5 227.900390625 l 1
 559.5 227.200195312 592.400390625 231.599609375 622.900390625 240.299804688 c 1
 487.599609375 345.799804688 l 2
 438 384.5 429.099609375 456.099609375 467.799804688 505.700195312 c 0
 506.5 555.299804688 578.099609375 564.200195312 627.700195312 525.5 c 2
 797.900390625 392.799804688 l 1
 817.299804688 436 827.799804688 485.400390625 827.799804688 538.700195312 c 0
 827.799804688 726.299804688 726.799804688 838.299804688 557.5 838.299804688 c 0
 313.900390625 838.299804688 287.599609375 609.799804688 287.599609375 511.599609375 c 0
 287.599609375 377.400390625 378.200195312 230.799804688 524.599609375 227.900390625 c 1
EndSplineSet
EndChar

StartChar: P
Encoding: 80 80 26
Width: 1090
VWidth: 1518
Flags: HW
LayerCount: 2
Fore
SplineSet
189.099609375 0 m 0
 126.200195312 0 75.2001953125 51 75.2001953125 113.900390625 c 2
 75.2001953125 962.200195312 l 2
 75.2001953125 1025.09960938 126.200195312 1076.09960938 189.099609375 1076.09960938 c 2
 664.799804688 1076.09960938 l 2
 871.299804688 1076.09960938 1009.90039062 891.299804688 1009.90039062 718.700195312 c 0
 1009.90039062 546.099609375 897.400390625 359.099609375 646 359.099609375 c 0
 530.099609375 359.099609375 391.799804688 360.799804688 303 362 c 1
 303 113.900390625 l 2
 303 51 252 0 189.099609375 0 c 0
303 589.900390625 m 1
 390.900390625 588.599609375 530 587 646 587 c 0
 679.599609375 587 782.099609375 587 782.099609375 718.700195312 c 0
 782.099609375 778.599609375 730.900390625 848.299804688 664.799804688 848.299804688 c 2
 303 848.299804688 l 1
 303 589.900390625 l 1
EndSplineSet
EndChar

StartChar: O
Encoding: 79 79 27
Width: 1160
VWidth: 1518
Flags: HW
LayerCount: 2
Fore
SplineSet
552.099609375 0 m 2
 548.200195312 0 544.200195312 0 540.299804688 0.099609375 c 0
 252.200195312 5.900390625 80 264.700195312 80 511.5 c 0
 80 843.200195312 280 1066.09960938 577.700195312 1066.09960938 c 0
 875.400390625 1066.09960938 1075.90039062 854.099609375 1075.90039062 538.700195312 c 0
 1075.90039062 383.599609375 1020.29980469 243.599609375 919.200195312 144.5 c 0
 823.799804688 51 693.900390625 0 552.200195312 0 c 2
 552.099609375 0 l 2
577.700195312 838.299804688 m 2
 334.099609375 838.299804688 307.799804688 609.799804688 307.799804688 511.599609375 c 0
 307.799804688 377.5 398.400390625 230.900390625 544.799804688 227.900390625 c 0
 630.700195312 226.299804688 704.900390625 253.599609375 759.700195312 307.200195312 c 0
 816.700195312 363 848.099609375 445.200195312 848.099609375 538.700195312 c 0
 848.099609375 726.299804688 747 838.299804688 577.799804688 838.299804688 c 2
 577.700195312 838.299804688 l 2
EndSplineSet
EndChar

StartChar: N
Encoding: 78 78 28
Width: 1040
VWidth: 1518
Flags: HW
LayerCount: 2
Fore
SplineSet
194.099609375 1.900390625 m 1
 187.900390625 1.900390625 181.700195312 2.400390625 175.5 3.400390625 c 0
 117.5 13 76.900390625 64.7998046875 80.2001953125 122.200195312 c 0
 81.099609375 163.400390625 80.599609375 645.700195312 80 963.799804688 c 0
 80 1012.09960938 110.299804688 1055.20019531 155.900390625 1071.40039062 c 0
 201.5 1087.5 252.200195312 1073.20019531 282.599609375 1035.59960938 c 2
 732.200195312 478.799804688 l 1
 732.200195312 964.099609375 l 2
 732.200195312 1027 783.200195312 1078 846.099609375 1078 c 0
 909 1078 960 1027 960 964.099609375 c 2
 960 156.5 l 2
 960 108.200195312 929.599609375 65.2001953125 884 49.099609375 c 0
 838.599609375 33 787.799804688 47.400390625 757.400390625 84.900390625 c 2
 308.299804688 641.099609375 l 1
 309 113.5 308 107.900390625 306.299804688 97.2998046875 c 0
 297.099609375 41.5 248.799804688 1.900390625 194 1.900390625 c 1
 194.099609375 1.900390625 l 1
EndSplineSet
EndChar

StartChar: M
Encoding: 77 77 29
Width: 1385
VWidth: 1518
Flags: HW
LayerCount: 2
Fore
SplineSet
1191 0 m 1
 1128.09960938 0 1077.09960938 51 1077.09960938 113.900390625 c 2
 1077.09960938 576.200195312 l 1
 782.599609375 120.799804688 l 2
 761.599609375 88.2998046875 725.599609375 68.7001953125 687 68.7001953125 c 2
 686.900390625 68.7001953125 l 2
 648.200195312 68.7001953125 612.200195312 88.400390625 591.200195312 121 c 2
 307.900390625 561.200195312 l 1
 307.900390625 113.799804688 l 2
 307.900390625 50.900390625 256.900390625 -0.099609375 194 -0.099609375 c 0
 131.099609375 -0.099609375 80.099609375 50.900390625 80.099609375 113.799804688 c 2
 80.099609375 948.900390625 l 2
 80.099609375 999.400390625 113.400390625 1043.90039062 161.900390625 1058.20019531 c 0
 210.5 1072.40039062 262.5 1053 289.799804688 1010.5 c 2
 687.200195312 392.900390625 l 1
 1095.40039062 1024 l 2
 1122.79980469 1066.40039062 1174.79980469 1085.70019531 1223.29980469 1071.40039062 c 0
 1271.70019531 1057.09960938 1305 1012.59960938 1305 962.099609375 c 2
 1305 113.799804688 l 2
 1305 50.900390625 1254 -0.099609375 1191.09960938 -0.099609375 c 1
 1191 0 l 1
EndSplineSet
EndChar

StartChar: L
Encoding: 76 76 30
Width: 1154
VWidth: 1518
Flags: HW
LayerCount: 2
Fore
SplineSet
917.5 0 m 1
 193.900390625 0 l 2
 131 0 80 51 80 113.900390625 c 2
 80 961.200195312 l 2
 80 1024.09960938 131 1075.09960938 193.900390625 1075.09960938 c 0
 256.799804688 1075.09960938 307.799804688 1024.09960938 307.799804688 961.200195312 c 2
 307.799804688 227.900390625 l 1
 917.5 227.900390625 l 2
 980.400390625 227.900390625 1031.40039062 176.900390625 1031.40039062 114 c 0
 1031.40039062 51.099609375 980.400390625 0.099609375 917.5 0.099609375 c 1
 917.5 0 l 1
EndSplineSet
EndChar

StartChar: K
Encoding: 75 75 31
Width: 1048
VWidth: 1518
Flags: HW
LayerCount: 2
Fore
SplineSet
936.900390625 189.799804688 m 1
 937 190 l 1
 977.299804688 141.700195312 971 69.900390625 922.700195312 29.5 c 0
 901.299804688 11.599609375 875.400390625 2.900390625 849.599609375 2.900390625 c 0
 817.099609375 2.900390625 784.700195312 16.7998046875 762.200195312 43.7001953125 c 2
 415 458.700195312 l 1
 307.900390625 368.900390625 l 1
 307.900390625 116.799804688 l 2
 307.900390625 53.900390625 256.900390625 2.900390625 194 2.900390625 c 0
 131.099609375 2.900390625 80.099609375 53.900390625 80.099609375 116.799804688 c 2
 80.099609375 963.5 l 2
 80.099609375 1026.40039062 131.099609375 1077.40039062 194 1077.40039062 c 0
 256.900390625 1077.40039062 307.900390625 1026.40039062 307.900390625 963.5 c 2
 307.900390625 666.200195312 l 1
 356 706.599609375 l 1
 356 706.599609375 l 1
 356 706.599609375 l 1
 766.400390625 1050.70019531 l 2
 814.599609375 1091.09960938 886.5 1084.79980469 926.900390625 1036.59960938 c 0
 967.299804688 988.400390625 961 916.5 912.799804688 876.099609375 c 2
 589.5 605 l 1
 936.900390625 189.799804688 l 1
EndSplineSet
EndChar

StartChar: J
Encoding: 74 74 32
Width: 1123
VWidth: 1518
Flags: HW
LayerCount: 2
Fore
SplineSet
568 1.2001953125 m 1
 214.599609375 1.2001953125 93.900390625 279.299804688 88.900390625 291.200195312 c 0
 64.5 349.200195312 91.7998046875 416 149.900390625 440.299804688 c 0
 208 464.700195312 274.700195312 437.299804688 299 379.299804688 c 0
 305.400390625 365.099609375 372.599609375 229 568 229 c 0
 808.900390625 229 815.799804688 450.099609375 815.799804688 475.299804688 c 2
 815.799804688 964.900390625 l 2
 815.799804688 1027.79980469 866.799804688 1078.79980469 929.700195312 1078.79980469 c 0
 992.599609375 1078.79980469 1043.59960938 1027.79980469 1043.59960938 964.900390625 c 2
 1043.59960938 475.400390625 l 2
 1043.59960938 284.799804688 916.900390625 1.2998046875 567.900390625 1.2998046875 c 1
 568 1.2001953125 l 1
EndSplineSet
EndChar

StartChar: I
Encoding: 73 73 33
Width: 547
VWidth: 1518
Flags: HW
LayerCount: 2
Fore
SplineSet
273.900390625 -1.2001953125 m 0
 211 -1.2001953125 160 49.7998046875 160 112.700195312 c 2
 160 961.400390625 l 2
 160 1024.29980469 211 1075.29980469 273.900390625 1075.29980469 c 0
 336.799804688 1075.29980469 387.799804688 1024.29980469 387.799804688 961.400390625 c 2
 387.799804688 112.700195312 l 2
 387.799804688 49.7998046875 336.799804688 -1.2001953125 273.900390625 -1.2001953125 c 0
EndSplineSet
EndChar

StartChar: H
Encoding: 72 72 34
Width: 1086
VWidth: 1518
Flags: HW
LayerCount: 2
Fore
SplineSet
888.200195312 1074.20019531 m 1
 888.099609375 1074.09960938 l 1
 951 1074.09960938 1002 1023.09960938 1002 960.200195312 c 2
 1002 114 l 2
 1002 51.099609375 951 0.099609375 888.099609375 0.099609375 c 0
 825.200195312 0.099609375 774.200195312 51.099609375 774.200195312 114 c 2
 774.200195312 412.700195312 l 1
 307.799804688 412.700195312 l 1
 307.799804688 114 l 2
 307.799804688 51.099609375 256.799804688 0.099609375 193.900390625 0.099609375 c 0
 131 0.099609375 80 51.099609375 80 114 c 2
 80 960.299804688 l 2
 80 1023.20019531 131 1074.20019531 193.900390625 1074.20019531 c 0
 256.799804688 1074.20019531 307.799804688 1023.20019531 307.799804688 960.299804688 c 2
 307.799804688 640.5 l 1
 774.299804688 640.5 l 1
 774.299804688 960.299804688 l 2
 774.299804688 1023.20019531 825.299804688 1074.20019531 888.200195312 1074.20019531 c 1
EndSplineSet
EndChar

StartChar: G
Encoding: 71 71 35
Width: 1192
VWidth: 1518
Flags: HW
LayerCount: 2
Fore
SplineSet
992 645.400390625 m 1
 991.900390625 645.5 l 1
 1054.79980469 645.5 1105.79980469 594.5 1105.79980469 531.599609375 c 2
 1105.79980469 115.599609375 l 2
 1105.79980469 52.7001953125 1054.79980469 1.7001953125 991.900390625 1.7001953125 c 0
 941.700195312 1.7001953125 899.599609375 34.400390625 884.400390625 79.400390625 c 1
 797.099609375 29.5 696.599609375 2.2998046875 593.599609375 2.2998046875 c 1
 593.599609375 2.2998046875 l 1
 456 2.2998046875 328.700195312 54.400390625 235 148.900390625 c 0
 133.900390625 250.900390625 79 393 80.400390625 548.900390625 c 0
 83.2998046875 865.700195312 357.200195312 1078.59960938 611.299804688 1078.59960938 c 0
 881.799804688 1078.59960938 987.099609375 943.200195312 1005.5 916.099609375 c 0
 1040.79980469 864 1027.09960938 793.200195312 975 757.900390625 c 0
 923.599609375 723.099609375 853.900390625 736 818.200195312 786.400390625 c 0
 813.400390625 792.299804688 756.400390625 850.799804688 611.299804688 850.799804688 c 0
 466.200195312 850.799804688 309.900390625 728.599609375 308.200195312 546.799804688 c 0
 307.400390625 452.099609375 338.799804688 367.700195312 396.799804688 309.200195312 c 0
 448.200195312 257.400390625 516.200195312 230 593.599609375 230 c 0
 760.299804688 230 864.299804688 341.200195312 878 380.400390625 c 2
 878 417.599609375 l 1
 664.299804688 417.599609375 l 2
 601.400390625 417.599609375 550.400390625 468.599609375 550.400390625 531.5 c 0
 550.400390625 594.400390625 601.400390625 645.400390625 664.299804688 645.400390625 c 2
 992 645.400390625 l 1
EndSplineSet
EndChar

StartChar: F
Encoding: 70 70 36
Width: 1127
VWidth: 1518
Flags: HW
LayerCount: 2
Fore
SplineSet
929 1078.79980469 m 1
 929.099609375 1078.79980469 l 2
 991.799804688 1078.79980469 1042.79980469 1028 1043 965.200195312 c 0
 1043.20019531 902.299804688 992.299804688 851.099609375 929.400390625 850.900390625 c 2
 308.700195312 849 l 1
 308.700195312 610.099609375 l 1
 680.599609375 610.099609375 l 2
 743.5 610.099609375 794.5 559.099609375 794.5 496.200195312 c 0
 794.5 433.299804688 743.5 382.299804688 680.599609375 382.299804688 c 2
 308.5 382.299804688 l 1
 308.5 115.200195312 l 2
 308.5 52.2998046875 257.5 1.2998046875 194.599609375 1.2998046875 c 0
 131.700195312 1.2998046875 80.7001953125 52.2998046875 80.7001953125 115.200195312 c 2
 80.7001953125 962.599609375 l 2
 80.7001953125 1025.40039062 131.5 1076.29980469 194.299804688 1076.5 c 2
 928.599609375 1078.79980469 l 1
 929 1078.79980469 l 1
EndSplineSet
EndChar

StartChar: E
Encoding: 69 69 37
Width: 1072
VWidth: 1518
Flags: HW
LayerCount: 2
Fore
SplineSet
880.900390625 233.299804688 m 2
 943.799804688 233.299804688 994.799804688 182.299804688 994.799804688 119.400390625 c 0
 994.799804688 56.5 943.799804688 5.5 880.900390625 5.5 c 2
 193.900390625 5.5 l 2
 131 5.5 80 56.5 80 119.400390625 c 2
 80 966 l 2
 80 1028.90039062 131 1079.90039062 193.900390625 1079.90039062 c 2
 880.799804688 1079.90039062 l 2
 943.700195312 1079.90039062 994.700195312 1028.90039062 994.700195312 966 c 0
 994.700195312 903.099609375 943.700195312 852.099609375 880.799804688 852.099609375 c 2
 307.799804688 852.099609375 l 1
 307.799804688 656.599609375 l 1
 688 656.599609375 l 2
 750.900390625 656.599609375 801.900390625 605.599609375 801.900390625 542.700195312 c 0
 801.900390625 479.799804688 750.900390625 428.799804688 688 428.799804688 c 2
 307.799804688 428.799804688 l 1
 307.799804688 233.299804688 l 1
 880.900390625 233.299804688 l 2
EndSplineSet
EndChar

StartChar: D
Encoding: 68 68 38
Width: 1136
VWidth: 1518
Flags: HW
LayerCount: 2
Fore
SplineSet
548.599609375 1.7998046875 m 1
 193.799804688 1.7998046875 l 2
 130.900390625 1.7998046875 79.900390625 52.7998046875 79.900390625 115.700195312 c 2
 79.900390625 964.299804688 l 2
 79.900390625 1027.20019531 130.900390625 1078.20019531 193.799804688 1078.20019531 c 2
 521 1078.20019531 l 2
 833.700195312 1078.20019531 1052.09960938 856.900390625 1052.09960938 540 c 0
 1052.09960938 186.700195312 798.799804688 1.7998046875 548.5 1.7998046875 c 1
 548.599609375 1.7998046875 l 1
307.700195312 229.700195312 m 1
 548.599609375 229.700195312 l 2
 685.900390625 229.700195312 824.299804688 325.700195312 824.299804688 540.099609375 c 0
 824.299804688 768.900390625 667.599609375 850.400390625 521 850.400390625 c 2
 307.700195312 850.400390625 l 1
 307.700195312 229.700195312 l 1
EndSplineSet
EndChar

StartChar: C
Encoding: 67 67 39
Width: 1137
VWidth: 1518
Flags: HW
LayerCount: 2
Fore
SplineSet
592.799804688 1.7998046875 m 1
 592.799804688 1.7998046875 l 1
 455.200195312 1.7998046875 327.900390625 53.900390625 234.200195312 148.5 c 0
 133.099609375 250.5 78.2001953125 392.599609375 79.599609375 548.5 c 0
 82.5 865.400390625 356.5 1078.20019531 610.5 1078.20019531 c 0
 864.5 1078.20019531 989.200195312 936.5 1001.40039062 920.400390625 c 0
 1039.29980469 870.200195312 1029.20019531 798.700195312 979 760.900390625 c 0
 930.799804688 724.599609375 863.200195312 732.299804688 824.299804688 777.299804688 c 0
 819.099609375 783.299804688 813.799804688 789.299804688 807.599609375 794.299804688 c 0
 784 813.299804688 723.599609375 850.5 610.599609375 850.5 c 0
 465.599609375 850.5 309.099609375 728.400390625 307.5 546.5 c 0
 306.599609375 451.799804688 338.099609375 367.5 396.099609375 308.900390625 c 0
 447.400390625 257.099609375 515.5 229.700195312 592.900390625 229.700195312 c 0
 769.099609375 229.700195312 844.400390625 334.299804688 847.5 338.799804688 c 0
 881.799804688 391.5 951.799804688 405.799804688 1004.59960938 371.5 c 0
 1057.40039062 337.200195312 1071.79980469 265.900390625 1037.5 213.099609375 c 0
 1031.90039062 204.5 896.700195312 1.900390625 592.900390625 1.900390625 c 1
 592.799804688 1.7998046875 l 1
EndSplineSet
EndChar

StartChar: B
Encoding: 66 66 40
Width: 1092
VWidth: 1518
Flags: HW
LayerCount: 2
Fore
SplineSet
660.799804688 -4.099609375 m 1
 193.900390625 -4.099609375 l 2
 131 -4.099609375 80 46.900390625 80 109.799804688 c 2
 80 957.299804688 l 2
 80 1020.20019531 131 1071.20019531 193.900390625 1071.20019531 c 2
 607.099609375 1071.20019531 l 2
 801.700195312 1071.20019531 948.400390625 934.900390625 948.400390625 754.099609375 c 0
 948.400390625 686.200195312 930.400390625 623.599609375 896.900390625 572.599609375 c 1
 963.5 516.400390625 1008.20019531 435 1008.20019531 330.5 c 0
 1008.20019531 127.299804688 871.799804688 -4 660.799804688 -4 c 1
 660.799804688 -4.099609375 l 1
307.799804688 223.700195312 m 1
 660.799804688 223.700195312 l 2
 760 223.700195312 780.299804688 266.400390625 780.299804688 330.400390625 c 0
 780.299804688 408.200195312 693.5 436.400390625 635.099609375 436.400390625 c 0
 629.900390625 436.400390625 624.299804688 436.400390625 618.5 436.400390625 c 0
 613.5 436.400390625 608.5 436.400390625 603.400390625 436.400390625 c 0
 520 436.099609375 394.599609375 434.700195312 307.700195312 433.700195312 c 1
 307.700195312 223.700195312 l 1
 307.799804688 223.700195312 l 1
307.799804688 843.400390625 m 1
 307.799804688 661.599609375 l 1
 394.900390625 662.599609375 519.299804688 664 602.700195312 664.299804688 c 0
 603.200195312 664.299804688 603.700195312 664.299804688 604.099609375 664.299804688 c 0
 608.099609375 664.299804688 612.099609375 664.299804688 615.900390625 664.299804688 c 0
 645.299804688 664.900390625 680.299804688 670.200195312 699.400390625 689 c 0
 717.799804688 707.200195312 720.5 737.599609375 720.5 754.099609375 c 0
 720.5 808.299804688 676 843.400390625 607 843.400390625 c 2
 307.700195312 843.400390625 l 1
 307.799804688 843.400390625 l 1
EndSplineSet
EndChar

StartChar: A
Encoding: 65 65 41
Width: 1068
VWidth: 1518
Flags: HW
LayerCount: 2
Fore
SplineSet
979.799804688 152.599609375 m 1
 979.700195312 152.599609375 l 1
 1002.79980469 94.099609375 974 28 915.5 4.900390625 c 0
 901.799804688 -0.5 887.700195312 -3.099609375 873.799804688 -3.099609375 c 0
 828.400390625 -3.099609375 785.5 24.2998046875 767.799804688 69.099609375 c 2
 719.400390625 191.799804688 l 1
 338.5 191.799804688 l 1
 287.400390625 71.599609375 l 2
 262.799804688 13.7001953125 196 -13.2998046875 138 11.2998046875 c 0
 80.099609375 35.900390625 53.099609375 102.799804688 77.7001953125 160.700195312 c 2
 435.200195312 1002 l 2
 453.299804688 1044.5 495.299804688 1073 541.599609375 1071.29980469 c 0
 587.900390625 1070.70019531 629.099609375 1042.20019531 646.099609375 999.200195312 c 2
 979.799804688 152.599609375 l 1
435.299804688 419.599609375 m 1
 629.599609375 419.599609375 l 1
 536.099609375 656.799804688 l 1
 435.299804688 419.599609375 l 1
979.799804688 152.599609375 m 1
 979.700195312 152.599609375 l 1
 1002.79980469 94.099609375 974 28 915.5 4.900390625 c 0
 901.799804688 -0.5 887.700195312 -3.099609375 873.799804688 -3.099609375 c 0
 828.400390625 -3.099609375 785.5 24.2998046875 767.799804688 69.099609375 c 2
 719.400390625 191.799804688 l 1
 338.5 191.799804688 l 1
 287.400390625 71.599609375 l 2
 262.799804688 13.7001953125 196 -13.2998046875 138 11.2998046875 c 0
 80.099609375 35.900390625 53.099609375 102.799804688 77.7001953125 160.700195312 c 2
 435.200195312 1002 l 2
 453.299804688 1044.5 495.299804688 1073 541.599609375 1071.29980469 c 0
 587.900390625 1070.70019531 629.099609375 1042.20019531 646.099609375 999.200195312 c 2
 979.799804688 152.599609375 l 1
435.299804688 419.599609375 m 1
 629.599609375 419.599609375 l 1
 536.099609375 656.799804688 l 1
 435.299804688 419.599609375 l 1
EndSplineSet
EndChar

StartChar: numbersign
Encoding: 35 35 42
Width: 1092
VWidth: 1518
Flags: HW
LayerCount: 2
Fore
SplineSet
859.900390625 419.799804688 m 2
 922.799804688 419.799804688 973.799804688 368.799804688 973.799804688 305.900390625 c 0
 973.799804688 243 922.799804688 192 859.900390625 192 c 2
 842.400390625 192 l 1
 842.400390625 116.799804688 l 2
 842.400390625 53.900390625 791.400390625 2.900390625 728.5 2.900390625 c 0
 665.599609375 2.900390625 614.599609375 53.900390625 614.599609375 116.799804688 c 2
 614.599609375 192 l 1
 489.400390625 192 l 1
 489.400390625 116.799804688 l 2
 489.400390625 53.900390625 438.400390625 2.900390625 375.5 2.900390625 c 0
 312.599609375 2.900390625 261.599609375 53.900390625 261.599609375 116.799804688 c 2
 261.599609375 192 l 1
 232.700195312 192 l 2
 169.799804688 192 118.799804688 243 118.799804688 305.900390625 c 0
 118.799804688 368.799804688 169.799804688 419.799804688 232.700195312 419.799804688 c 2
 261.599609375 419.799804688 l 1
 261.599609375 675.799804688 l 1
 232.700195312 675.799804688 l 2
 169.799804688 675.799804688 118.799804688 726.799804688 118.799804688 789.700195312 c 0
 118.799804688 852.599609375 169.799804688 903.599609375 232.700195312 903.599609375 c 2
 261.599609375 903.599609375 l 1
 261.599609375 963.400390625 l 2
 261.599609375 1026.29980469 312.599609375 1077.29980469 375.5 1077.29980469 c 0
 438.400390625 1077.29980469 489.400390625 1026.29980469 489.400390625 963.400390625 c 2
 489.400390625 903.599609375 l 1
 614.599609375 903.599609375 l 1
 614.599609375 963.400390625 l 2
 614.599609375 1026.29980469 665.599609375 1077.29980469 728.5 1077.29980469 c 0
 791.400390625 1077.29980469 842.400390625 1026.29980469 842.400390625 963.400390625 c 2
 842.400390625 903.599609375 l 1
 859.900390625 903.599609375 l 2
 922.799804688 903.599609375 973.799804688 852.599609375 973.799804688 789.700195312 c 0
 973.799804688 726.799804688 922.799804688 675.799804688 859.900390625 675.799804688 c 2
 842.400390625 675.799804688 l 1
 842.400390625 419.799804688 l 1
 859.900390625 419.799804688 l 2
489.5 419.799804688 m 1
 614.700195312 419.799804688 l 1
 614.700195312 675.799804688 l 1
 489.5 675.799804688 l 1
 489.5 419.799804688 l 1
EndSplineSet
EndChar

StartChar: ampersand
Encoding: 38 38 43
Width: 1072
VWidth: 1518
Flags: HW
LayerCount: 2
Fore
SplineSet
406.900390625 0 m 1
 249 0 80 123.299804688 80 306.900390625 c 0
 80 432.400390625 161.799804688 522.700195312 243.400390625 584.700195312 c 1
 201.200195312 633.400390625 169 687.900390625 161.200195312 761.299804688 c 0
 153.099609375 836.5 181.299804688 918.099609375 236.599609375 979.599609375 c 0
 291.5 1040.70019531 365.099609375 1074.40039062 443.900390625 1074.40039062 c 0
 587.599609375 1074.40039062 741.5 970.299804688 743.5 777.400390625 c 0
 744.599609375 668.5 675.099609375 594.700195312 606.5 544.700195312 c 1
 705.700195312 445.099609375 l 2
 722 460.799804688 737.299804688 475.400390625 750.299804688 487.799804688 c 0
 791.200195312 526.5 867.299804688 598.700195312 946.5 525.900390625 c 0
 991.900390625 484.200195312 995.900390625 416 955.799804688 367.400390625 c 0
 948.5 358.5 940.099609375 351 931 345 c 0
 918.400390625 333.400390625 895.400390625 311.599609375 866.5 283.799804688 c 1
 955.599609375 194.400390625 l 2
 1000 149.799804688 999.900390625 77.7001953125 955.299804688 33.2998046875 c 0
 910.700195312 -11.099609375 838.599609375 -11 794.200195312 33.599609375 c 2
 702.900390625 125.299804688 l 2
 700.900390625 123.400390625 699 121.5 697.099609375 119.599609375 c 0
 621.900390625 40.2998046875 524.299804688 0.099609375 407 0.099609375 c 1
 406.900390625 0 l 1
407.299804688 421.799804688 m 0
 358.599609375 389 307.799804688 346.200195312 307.799804688 306.900390625 c 0
 307.799804688 261.799804688 367.900390625 227.799804688 406.900390625 227.799804688 c 0
 462.599609375 227.799804688 500.200195312 242.599609375 532.599609375 277.200195312 c 0
 533.799804688 278.400390625 534.900390625 279.700195312 536.200195312 280.900390625 c 2
 536.200195312 280.900390625 538.299804688 282.900390625 542.099609375 286.599609375 c 1
 407.299804688 421.799804688 l 0
780 512.299804688 m 1
 780 512.299804688 780 512.299804688 780 512.200195312 c 1
 780 512.200195312 780 512.200195312 780 512.299804688 c 1
443.900390625 846.599609375 m 2
 426.900390625 846.599609375 413.900390625 836.200195312 406.099609375 827.400390625 c 0
 392 811.700195312 386.900390625 793.5 387.799804688 785.599609375 c 0
 390.200195312 763.299804688 405 743 440.400390625 707.700195312 c 0
 473.799804688 728.5 515.900390625 757.799804688 515.700195312 775.099609375 c 0
 515 843.200195312 455.799804688 846.599609375 444 846.599609375 c 2
 443.900390625 846.599609375 l 2
EndSplineSet
EndChar

StartChar: hyphen
Encoding: 45 45 44
Width: 1341
VWidth: 1518
Flags: HW
LayerCount: 2
Fore
SplineSet
1076.5 432.299804688 m 1
 265.200195312 432.299804688 l 2
 205.700195312 432.299804688 157.5 480.5 157.5 540 c 0
 157.5 599.5 205.700195312 647.700195312 265.200195312 647.700195312 c 2
 1076.40039062 647.700195312 l 2
 1135.90039062 647.700195312 1184.09960938 599.5 1184.09960938 540 c 0
 1184.09960938 480.5 1135.90039062 432.299804688 1076.40039062 432.299804688 c 1
 1076.5 432.299804688 l 1
EndSplineSet
EndChar

StartChar: equal
Encoding: 61 61 45
Width: 1342
VWidth: 1518
Flags: HW
LayerCount: 2
Fore
SplineSet
1075.70019531 255 m 1
 264.400390625 255 l 2
 204.900390625 255 156.700195312 303.200195312 156.700195312 362.700195312 c 0
 156.700195312 422.200195312 204.900390625 470.400390625 264.400390625 470.400390625 c 2
 1075.59960938 470.400390625 l 2
 1135.09960938 470.400390625 1183.29980469 422.200195312 1183.29980469 362.700195312 c 0
 1183.29980469 303.200195312 1135.09960938 255 1075.59960938 255 c 1
 1075.70019531 255 l 1
1075.70019531 609.5 m 1
 264.400390625 609.5 l 2
 204.900390625 609.5 156.700195312 657.700195312 156.700195312 717.200195312 c 0
 156.700195312 776.700195312 204.900390625 824.900390625 264.400390625 824.900390625 c 2
 1075.59960938 824.900390625 l 2
 1135.09960938 824.900390625 1183.29980469 776.700195312 1183.29980469 717.200195312 c 0
 1183.29980469 657.700195312 1135.09960938 609.5 1075.59960938 609.5 c 1
 1075.70019531 609.5 l 1
EndSplineSet
EndChar

StartChar: n
Encoding: 110 110 46
Width: 970
VWidth: 1518
Flags: HW
LayerCount: 2
Fore
SplineSet
486.5 853 m 1
 486.400390625 853 l 1
 735.599609375 853 890.400390625 689.5 890.400390625 426.400390625 c 2
 890.400390625 116.099609375 l 2
 890.400390625 53.2001953125 839.400390625 2.2001953125 776.5 2.2001953125 c 0
 713.599609375 2.2001953125 662.599609375 53.2001953125 662.599609375 116.099609375 c 2
 662.599609375 426.400390625 l 2
 662.599609375 625.200195312 534.700195312 625.200195312 486.5 625.200195312 c 0
 369.700195312 625.200195312 310.400390625 566 310.400390625 449.099609375 c 2
 310.400390625 116.099609375 l 2
 310.400390625 53.2001953125 259.400390625 2.2001953125 196.5 2.2001953125 c 0
 133.599609375 2.2001953125 82.599609375 53.2001953125 82.599609375 116.099609375 c 2
 82.599609375 739.099609375 l 2
 82.599609375 802 133.599609375 853 196.5 853 c 0
 233.200195312 853 265.5 835.299804688 286.299804688 808.400390625 c 0
 341.200195312 836.299804688 407.5 853 486.5 853 c 1
EndSplineSet
EndChar

StartChar: mu
Encoding: 181 181 47
Width: 1016
VWidth: 1518
Flags: HW
LayerCount: 2
Fore
SplineSet
828.799804688 267.299804688 m 1
 828.900390625 267.299804688 l 1
 828.599609375 265.900390625 828.700195312 264.599609375 828.400390625 263.200195312 c 0
 819.400390625 223.200195312 843.700195312 210.099609375 848.700195312 207.900390625 c 0
 903.099609375 183.599609375 927.400390625 119.900390625 903.099609375 65.599609375 c 0
 885.200195312 25.599609375 845.900390625 1.7998046875 804.700195312 1.7998046875 c 0
 790 1.7998046875 775.099609375 4.7998046875 760.799804688 11.2001953125 c 0
 741 20.099609375 716.799804688 35.5 693.599609375 57.099609375 c 0
 641.299804688 22.900390625 568.599609375 -1.5 467 -1.5 c 0
 465.799804688 -1.5 464.599609375 -1.5 463.400390625 -1.5 c 0
 416 -1.2001953125 375.200195312 9 340.099609375 25.2001953125 c 1
 293.5 -193.299804688 l 2
 283.299804688 -244.5 238.299804688 -280 188 -280 c 0
 181 -280 173.900390625 -279.299804688 166.799804688 -277.900390625 c 0
 108.400390625 -266.299804688 70.599609375 -209.599609375 82.2001953125 -151.200195312 c 2
 168.5 266.400390625 l 2
 169.200195312 273.400390625 170.599609375 280.299804688 172.599609375 287 c 2
 255.099609375 700.700195312 l 2
 266.700195312 759.099609375 323.700195312 796.900390625 381.799804688 785.299804688 c 0
 440.200195312 773.700195312 478 717 466.400390625 658.599609375 c 2
 387.599609375 263.5 l 2
 398.5 242.299804688 421.099609375 214.099609375 464.5 213.900390625 c 0
 465.299804688 213.900390625 466.200195312 213.900390625 467 213.900390625 c 0
 587.400390625 213.900390625 602.200195312 262.599609375 608.599609375 283.5 c 0
 647.5 411 724.5 684.299804688 725.299804688 687 c 0
 741.400390625 744.299804688 800.799804688 777.599609375 858.200195312 761.5 c 0
 915.5 745.400390625 948.799804688 685.900390625 932.700195312 628.599609375 c 0
 929.900390625 618.5 869.799804688 405.400390625 828.799804688 267.299804688 c 1
EndSplineSet
EndChar

StartChar: p
Encoding: 112 112 48
Width: 966
VWidth: 1518
Flags: HW
LayerCount: 2
Fore
SplineSet
887.900390625 427.400390625 m 1
 887.900390625 427.599609375 l 1
 887.900390625 424.099609375 887.200195312 420.799804688 886.900390625 417.400390625 c 0
 887.200195312 414 887.900390625 410.700195312 887.900390625 407.200195312 c 0
 887.900390625 206.099609375 763 3.2001953125 483.900390625 3.2001953125 c 0
 418.200195312 3.2001953125 359.299804688 14.7998046875 307.799804688 36.400390625 c 1
 307.799804688 -166 l 2
 307.799804688 -228.900390625 256.799804688 -279.900390625 193.900390625 -279.900390625 c 0
 131 -279.900390625 80 -228.900390625 80 -166 c 2
 80 740.099609375 l 2
 80 803 131 854 193.900390625 854 c 0
 230 854 261.799804688 836.900390625 282.700195312 810.700195312 c 0
 336.900390625 837.599609375 403.099609375 854 483.900390625 854 c 0
 733.099609375 854 887.900390625 690.5 887.900390625 427.400390625 c 1
484 231 m 1
 484 230.900390625 l 1
 600.799804688 230.900390625 660.099609375 290.099609375 660.099609375 407 c 0
 660.099609375 410.5 660.799804688 413.799804688 661.099609375 417.200195312 c 0
 660.799804688 420.599609375 660.099609375 423.900390625 660.099609375 427.400390625 c 0
 660.099609375 626.200195312 532.200195312 626.200195312 484 626.200195312 c 0
 367.200195312 626.200195312 307.900390625 567 307.900390625 450.099609375 c 2
 307.900390625 429.799804688 l 2
 307.900390625 231 435.799804688 231 484 231 c 1
EndSplineSet
EndChar

StartChar: k
Encoding: 107 107 49
Width: 873
VWidth: 1518
Flags: HW
LayerCount: 2
Fore
SplineSet
768.099609375 184.700195312 m 1
 767.900390625 184.599609375 l 1
 807 135.299804688 798.700195312 63.7001953125 749.400390625 24.599609375 c 0
 728.5 8 703.5 0 678.700195312 0 c 0
 645.099609375 0 611.900390625 14.7998046875 589.400390625 43.2001953125 c 2
 355.799804688 337.900390625 l 1
 307.700195312 296.5 l 1
 307.700195312 114 l 2
 307.700195312 51.099609375 256.700195312 0.099609375 193.799804688 0.099609375 c 0
 130.900390625 0.099609375 79.900390625 51.099609375 79.900390625 114 c 2
 79.900390625 960.599609375 l 2
 79.900390625 1023.5 130.900390625 1074.5 193.799804688 1074.5 c 0
 256.700195312 1074.5 307.700195312 1023.5 307.700195312 960.599609375 c 2
 307.700195312 597 l 1
 600.5 849 l 2
 648.200195312 890 720.099609375 884.700195312 761.099609375 837 c 0
 802.200195312 789.299804688 796.799804688 717.400390625 749.099609375 676.299804688 c 2
 528.700195312 486.599609375 l 1
 768.099609375 184.700195312 l 1
EndSplineSet
EndChar

StartChar: semicolon
Encoding: 59 59 50
Width: 832
VWidth: 1518
Flags: HW
LayerCount: 2
Fore
SplineSet
310.200195312 886.599609375 m 0
 310.200195312 956.51953125 366.880859375 1013.20019531 436.799804688 1013.20019531 c 0
 506.719726562 1013.20019531 563.400390625 956.51953125 563.400390625 886.599609375 c 0
 563.400390625 816.680664062 506.719726562 760 436.799804688 760 c 0
 366.880859375 760 310.200195312 816.680664062 310.200195312 886.599609375 c 0
396 -50.099609375 m 1
 384.099609375 -50.099609375 372.299804688 -48.2998046875 360.900390625 -44.599609375 c 0
 331.400390625 -35.2998046875 307.299804688 -15 293 12.5 c 0
 278.700195312 40 276 71.400390625 285.400390625 100.900390625 c 2
 326.200195312 229.599609375 l 2
 341.5 278 385.900390625 310.599609375 436.700195312 310.599609375 c 0
 448.599609375 310.599609375 460.400390625 308.799804688 471.799804688 305.099609375 c 0
 501.299804688 295.799804688 525.400390625 275.5 539.700195312 248 c 0
 554 220.5 556.700195312 189.099609375 547.299804688 159.599609375 c 2
 506.5 30.900390625 l 2
 491.099609375 -17.5 446.700195312 -50 396 -50 c 1
 396 -50.099609375 l 1
EndSplineSet
EndChar

StartChar: period
Encoding: 46 46 51
Width: 602
VWidth: 1518
Flags: HW
LayerCount: 2
Fore
SplineSet
135 136 m 0
 135 227.458007812 209.141601562 301.599609375 300.599609375 301.599609375 c 0
 392.05859375 301.599609375 466.200195312 227.458007812 466.200195312 136 c 0
 466.200195312 44.541015625 392.05859375 -29.6005859375 300.599609375 -29.6005859375 c 0
 209.141601562 -29.6005859375 135 44.541015625 135 136 c 0
EndSplineSet
EndChar

StartChar: comma
Encoding: 44 44 52
Width: 553
VWidth: 1518
Flags: HW
LayerCount: 2
Fore
SplineSet
237.299804688 -126.5 m 0
 225.400390625 -126.5 213.599609375 -124.700195312 202.200195312 -121.099609375 c 0
 141.299804688 -101.799804688 107.400390625 -36.5 126.700195312 24.400390625 c 2
 167.5 153.099609375 l 2
 182.900390625 201.5 227.200195312 234.099609375 278 234.099609375 c 0
 289.900390625 234.099609375 301.700195312 232.299804688 313.099609375 228.599609375 c 0
 342.599609375 219.299804688 366.700195312 199 381 171.5 c 0
 395.299804688 144 398 112.599609375 388.599609375 83.099609375 c 2
 347.799804688 -45.599609375 l 2
 332.5 -94 288 -126.5 237.299804688 -126.5 c 0
EndSplineSet
EndChar

StartChar: quotedbl
Encoding: 34 34 53
Width: 830
VWidth: 1518
Flags: HW
LayerCount: 2
Fore
SplineSet
241.299804688 595.299804688 m 0
 178.599609375 595.299804688 127.599609375 646 127.400390625 708.799804688 c 2
 126.400390625 966.200195312 l 2
 126.200195312 1029.09960938 177 1080.29980469 239.799804688 1080.59960938 c 2
 240.299804688 1080.59960938 l 2
 303 1080.59960938 354 1029.90039062 354.200195312 967.099609375 c 2
 355.200195312 709.700195312 l 2
 355.400390625 646.799804688 304.599609375 595.599609375 241.799804688 595.299804688 c 2
 241.299804688 595.299804688 l 0
588.400390625 595.299804688 m 1
 525.700195312 595.299804688 474.700195312 646 474.5 708.799804688 c 2
 473.5 966.200195312 l 2
 473.299804688 1029.09960938 524.099609375 1080.29980469 586.900390625 1080.59960938 c 2
 587.400390625 1080.59960938 l 2
 650.099609375 1080.59960938 701.099609375 1029.90039062 701.299804688 967.099609375 c 2
 702.299804688 709.700195312 l 2
 702.5 646.799804688 651.700195312 595.599609375 588.900390625 595.299804688 c 2
 588.400390625 595.299804688 l 1
EndSplineSet
EndChar

StartChar: quotesingle
Encoding: 39 39 54
Width: 788
VWidth: 1518
Flags: HW
LayerCount: 2
Fore
SplineSet
333 594.700195312 m 1
 321.599609375 594.700195312 310 596.400390625 298.599609375 600.099609375 c 0
 238.599609375 619.099609375 205.400390625 683.099609375 224.400390625 743.099609375 c 2
 306 1000.5 l 2
 325 1060.5 389 1093.70019531 449 1074.70019531 c 0
 509 1055.70019531 542.200195312 991.700195312 523.200195312 931.700195312 c 2
 441.599609375 674.299804688 l 2
 426.200195312 625.799804688 381.400390625 594.799804688 333 594.799804688 c 1
 333 594.700195312 l 1
EndSplineSet
EndChar

StartChar: uni03A9
Encoding: 937 937 55
Width: 1109
Flags: HW
LayerCount: 2
Fore
SplineSet
922.599609375 0 m 1
 714.400390625 0 l 2
 655.900390625 0 608 46.7001953125 606.700195312 105.299804688 c 0
 606 135.5 606.200195312 291 678.299804688 387.200195312 c 0
 684.099609375 395 690.299804688 403 696.700195312 411.200195312 c 0
 744.400390625 472.799804688 793.700195312 536.599609375 791.099609375 642 c 0
 790.299804688 677 741.299804688 867.400390625 545.299804688 867.400390625 c 0
 334.200195312 867.400390625 319.299804688 644.299804688 319.200195312 642 c 0
 316.599609375 536.599609375 365.900390625 472.799804688 413.599609375 411.200195312 c 0
 420 402.900390625 426.200195312 394.900390625 432 387.200195312 c 0
 504.099609375 291 504.299804688 135.5 503.599609375 105.299804688 c 0
 502.200195312 46.7998046875 454.400390625 0.099609375 395.900390625 0.099609375 c 2
 187.700195312 0.099609375 l 2
 128.200195312 0.099609375 80 48.2998046875 80 107.799804688 c 0
 80 167.299804688 128.200195312 215.5 187.700195312 215.5 c 2
 276.400390625 215.5 l 1
 271.799804688 233.900390625 266.200195312 249.099609375 259.599609375 257.900390625 c 0
 254.400390625 264.799804688 248.900390625 272 243.200195312 279.400390625 c 0
 185.900390625 353.400390625 99.400390625 465.299804688 103.799804688 647.299804688 c 0
 108.200195312 828.200195312 248.099609375 1082.90039062 545.299804688 1082.90039062 c 0
 863.700195312 1082.90039062 1002.79980469 799.200195312 1006.59960938 647.299804688 c 0
 1011 465.299804688 924.5 353.400390625 867.200195312 279.400390625 c 0
 861.5 272 856 264.900390625 850.799804688 257.900390625 c 0
 844.099609375 248.900390625 838.400390625 233.599609375 834 215.5 c 1
 922.700195312 215.5 l 2
 982.200195312 215.5 1030.40039062 167.299804688 1030.40039062 107.799804688 c 0
 1030.40039062 48.2998046875 982.200195312 0.099609375 922.700195312 0.099609375 c 1
 922.599609375 0 l 1
EndSplineSet
EndChar

StartChar: uni2010
Encoding: 8208 8208 56
Width: 858
Flags: HW
LayerCount: 2
Fore
SplineSet
156.700195312 574.799804688 m 2
 156.700195312 649.900390625 156.700195312 649.900390625 231.799804688 649.900390625 c 2
 624.5 649.900390625 l 2
 699.599609375 649.900390625 699.599609375 649.900390625 699.599609375 574.799804688 c 2
 699.599609375 505.299804688 l 2
 699.599609375 430.200195312 699.599609375 430.200195312 624.5 430.200195312 c 2
 231.799804688 430.200195312 l 2
 156.700195312 430.200195312 156.700195312 430.200195312 156.700195312 505.299804688 c 2
 156.700195312 574.799804688 l 2
EndSplineSet
EndChar

StartChar: endash
Encoding: 8211 8211 57
Width: 858
Flags: HW
LayerCount: 2
Fore
SplineSet
156.700195312 574.799804688 m 2
 156.700195312 649.900390625 156.700195312 649.900390625 231.799804688 649.900390625 c 2
 624.5 649.900390625 l 2
 699.599609375 649.900390625 699.599609375 649.900390625 699.599609375 574.799804688 c 2
 699.599609375 505.299804688 l 2
 699.599609375 430.200195312 699.599609375 430.200195312 624.5 430.200195312 c 2
 231.799804688 430.200195312 l 2
 156.700195312 430.200195312 156.700195312 430.200195312 156.700195312 505.299804688 c 2
 156.700195312 574.799804688 l 2
EndSplineSet
EndChar
